<svg width="100" height="100" viewBox="0 0 100 100" fill="none" xmlns="http://www.w3.org/2000/svg">
<g clip-path="url(#clip0_823_5)">
<rect width="100" height="100" fill="#12CDD4"/>
<path d="M50.0001 16.6667C54.4204 16.6667 58.6596 18.4227 61.7852 21.5483C64.9108 24.6739 66.6667 28.9131 66.6667 33.3334C66.6667 37.7537 64.9108 41.9929 61.7852 45.1185C58.6596 48.2441 54.4204 50.0001 50.0001 50.0001C45.5798 50.0001 41.3406 48.2441 38.215 45.1185C35.0894 41.9929 33.3334 37.7537 33.3334 33.3334C33.3334 28.9131 35.0894 24.6739 38.215 21.5483C41.3406 18.4227 45.5798 16.6667 50.0001 16.6667ZM50.0001 58.3334C68.4167 58.3334 83.3334 65.7917 83.3334 75.0001V83.3334H16.6667V75.0001C16.6667 65.7917 31.5834 58.3334 50.0001 58.3334Z" fill="white"/>
</g>
<defs>
<clipPath id="clip0_823_5">
<rect width="100" height="100" fill="white"/>
</clipPath>
</defs>
</svg>
