<svg width="200" height="113" viewBox="0 0 200 113" fill="none" xmlns="http://www.w3.org/2000/svg">
<rect width="200" height="112.664" fill="#12CDD4"/>
<path d="M87.5 39H80V36.5H87.5V39ZM92.5 49H85V46.5H92.5V49ZM90 44H82.5V41.5H90V44Z" fill="white"/>
<path d="M76.2537 39C76.2449 37.9453 75.9636 36.9107 75.4371 35.9968C74.9106 35.0828 74.1567 34.3205 73.2487 33.7837L82.5 17.75L80.3375 16.5L70.8662 32.9075C69.7039 32.6478 68.4949 32.6837 67.35 33.012C66.2051 33.3402 65.1608 33.9502 64.3125 34.7862C59.6325 39.3 59.995 49.8525 60.0125 50.3C60.0254 50.6228 60.1628 50.928 60.3958 51.1517C60.6289 51.3754 60.9395 51.5003 61.2625 51.5H80.0012C80.2636 51.5 80.5193 51.4175 80.7321 51.2641C80.945 51.1107 81.1041 50.8942 81.1871 50.6453C81.2701 50.3964 81.2726 50.1277 81.1944 49.8773C81.1162 49.6269 80.9611 49.4074 80.7512 49.25C76.3262 45.93 76.2537 39.0675 76.2537 39ZM69.9125 35.2462C70.913 35.2572 71.8707 35.6535 72.5864 36.3527C73.3021 37.0519 73.7206 38.0001 73.755 39C73.755 39.0475 73.7575 39.26 73.7762 39.5862L66.4012 36.3062C66.887 35.9057 67.4476 35.6057 68.0504 35.4237C68.6532 35.2417 69.2862 35.1814 69.9125 35.2462ZM74.3125 49C73.3134 47.9826 72.6765 46.665 72.5 45.25H70C70.0895 46.5803 70.5051 47.8682 71.21 49H68.4312C67.9172 47.3778 67.6044 45.6985 67.5 44H65C65.0806 45.6934 65.3596 47.3716 65.8312 49H62.5C62.5387 46.705 62.8625 41.635 64.7537 38.3088L74.17 42.4963C74.6224 44.8454 75.5869 47.066 76.995 49H74.3125Z" fill="white"/>
<path d="M116.142 44.6249L121.464 39.3036L119.696 37.5361L114.375 42.8574L113.384 41.8661C113.149 41.6318 112.831 41.5001 112.5 41.5001C112.169 41.5001 111.851 41.6318 111.616 41.8661L106.616 46.8661C106.382 47.1005 106.25 47.4184 106.25 47.7499C106.25 48.0813 106.382 48.3992 106.616 48.6336L110.366 52.3836C110.601 52.618 110.919 52.7496 111.25 52.7496C111.581 52.7496 111.899 52.618 112.134 52.3836L117.134 47.3836C117.368 47.1492 117.5 46.8313 117.5 46.4999C117.5 46.1684 117.368 45.8505 117.134 45.6161L116.142 44.6249ZM111.25 49.7324L109.267 47.7499L112.5 44.5174L114.482 46.4999L111.25 49.7324Z" fill="white"/>
<path d="M135 51.5C133.012 51.4977 131.105 50.7068 129.699 49.3008C128.293 47.8947 127.502 45.9884 127.5 44C127.501 43.3466 127.589 42.6962 127.763 42.0663L116.935 31.2375C116.305 31.4112 115.654 31.4994 115 31.5C113.778 31.5049 112.574 31.2099 111.492 30.641C110.411 30.072 109.485 29.2464 108.797 28.2366C108.109 27.2268 107.679 26.0637 107.545 24.849C107.411 23.6344 107.577 22.4055 108.029 21.27L108.726 19.4938L112.866 23.6338C113.104 23.8609 113.421 23.9877 113.749 23.9877C114.078 23.9877 114.395 23.8609 114.633 23.6338C114.749 23.5178 114.841 23.38 114.904 23.2284C114.967 23.0767 114.999 22.9142 114.999 22.75C114.999 22.5858 114.967 22.4233 114.904 22.2716C114.841 22.12 114.749 21.9822 114.633 21.8663L110.494 17.7238L112.273 17.0275C113.408 16.5768 114.637 16.4114 115.851 16.5459C117.065 16.6803 118.228 17.1104 119.237 17.7986C120.247 18.4867 121.072 19.4119 121.641 20.4931C122.21 21.5742 122.505 22.7784 122.5 24C122.5 24.6534 122.411 25.3038 122.238 25.9338L133.066 36.7625C133.696 36.5891 134.347 36.5008 135 36.5C136.222 36.4951 137.427 36.7901 138.508 37.359C139.589 37.928 140.515 38.7536 141.203 39.7634C141.891 40.7732 142.321 41.9364 142.455 43.151C142.589 44.3656 142.423 45.5945 141.971 46.73L141.275 48.5063L137.134 44.3663C136.896 44.1391 136.58 44.0123 136.251 44.0123C135.922 44.0123 135.605 44.1391 135.368 44.3663C135.251 44.4822 135.159 44.6198 135.096 44.7714C135.033 44.923 135.001 45.0856 135 45.2497C135 45.4139 135.033 45.5765 135.095 45.7282C135.158 45.8799 135.25 46.0177 135.366 46.1338L139.508 50.275L137.73 50.9725C136.861 51.3181 135.935 51.4971 135 51.5ZM117.578 28.345L130.654 41.4213L130.355 42.1838C130.062 42.9156 129.948 43.7066 130.021 44.4915C130.095 45.2763 130.354 46.0324 130.777 46.6973C131.2 47.3623 131.776 47.917 132.456 48.3157C133.136 48.7143 133.901 48.9455 134.688 48.99L133.599 47.9025C133.251 47.5543 132.974 47.1409 132.786 46.6858C132.597 46.2308 132.5 45.7431 132.5 45.2506C132.5 44.7581 132.597 44.2704 132.786 43.8154C132.974 43.3604 133.251 42.947 133.599 42.5988C134.313 41.9166 135.263 41.536 136.251 41.536C137.238 41.536 138.188 41.9166 138.903 42.5988L139.99 43.6875C139.945 42.9005 139.714 42.1354 139.315 41.4554C138.916 40.7754 138.362 40.2 137.697 39.7768C137.032 39.3535 136.275 39.0945 135.49 39.0212C134.706 38.9479 133.915 39.0623 133.183 39.355L132.421 39.6538L119.346 26.5788L119.646 25.8163C119.939 25.0843 120.054 24.2932 119.98 23.5083C119.907 22.7234 119.648 21.9672 119.224 21.3022C118.801 20.6372 118.225 20.0825 117.545 19.6839C116.865 19.2854 116.1 19.0544 115.313 19.01L116.4 20.0975C116.748 20.4457 117.025 20.8592 117.213 21.3142C117.402 21.7692 117.499 22.2569 117.499 22.7494C117.499 23.2419 117.402 23.7296 117.213 24.1846C117.025 24.6396 116.748 25.053 116.4 25.4013C115.686 26.0834 114.736 26.464 113.748 26.464C112.76 26.464 111.811 26.0834 111.096 25.4013L110.009 24.3125C110.053 25.0995 110.285 25.8646 110.683 26.5446C111.082 27.2246 111.637 27.8 112.302 28.2233C112.966 28.6465 113.723 28.9055 114.507 28.9789C115.292 29.0522 116.083 28.9378 116.815 28.645L117.578 28.345Z" fill="white"/>
<path d="M141.404 17.5625C140.689 16.8804 139.74 16.4998 138.752 16.4998C137.764 16.4998 136.814 16.8804 136.1 17.5625L126.75 26.9125L128.517 28.68L137.868 19.33C138.106 19.1027 138.422 18.9759 138.751 18.9759C139.08 18.9759 139.397 19.1027 139.635 19.33C139.869 19.5647 140 19.8825 140 20.2137C140 20.545 139.869 20.8628 139.635 21.0975L130.285 30.4475L132.053 32.2162L141.403 22.8662C142.105 22.1625 142.5 21.2087 142.5 20.2144C142.5 19.22 142.106 18.2663 141.404 17.5625Z" fill="white"/>
<path d="M65.6666 72.3333V70.9999C65.6666 69.2318 66.369 67.5361 67.6193 66.2859C68.8695 65.0356 70.5652 64.3333 72.3333 64.3333C74.1014 64.3333 75.7971 65.0356 77.0473 66.2859C78.2976 67.5361 79 69.2318 79 70.9999V86.4479L85.3066 80.1413L84.3813 76.6879L84.3786 76.6719H84.376C84.3003 76.388 84.3205 76.0871 84.4335 75.8159C84.5464 75.5447 84.7458 75.3184 85.0006 75.1722C85.2554 75.0259 85.5513 74.9679 85.8425 75.0072C86.1336 75.0464 86.4037 75.1807 86.6106 75.3893L91.944 80.7226C92.1514 80.9294 92.285 81.1987 92.3241 81.489C92.3633 81.7793 92.3057 82.0743 92.1603 82.3286C92.015 82.5829 91.7899 82.7823 91.5199 82.8959C91.25 83.0095 90.9501 83.0311 90.6666 82.9573L90.64 82.9493L87.192 82.0266L79 90.2186V90.9999C79 91.7072 78.719 92.3854 78.2189 92.8855C77.7188 93.3856 77.0405 93.6666 76.3333 93.6666H68.3333C67.6261 93.6666 66.9478 93.3856 66.4477 92.8855C65.9476 92.3854 65.6666 91.7072 65.6666 90.9999V89.7626L59.6186 83.7146C58.37 82.4633 57.6687 80.7677 57.6687 78.9999C57.6687 77.2322 58.37 75.5366 59.6186 74.2853C60.2372 73.6654 60.9721 73.1739 61.7812 72.8389C62.5903 72.5039 63.4576 72.3321 64.3333 72.3333H65.6666ZM65.6666 74.9999H64.3333C63.5419 74.9996 62.7682 75.234 62.1101 75.6735C61.4519 76.113 60.939 76.7378 60.6361 77.4689C60.3332 78.2001 60.254 79.0046 60.4084 79.7808C60.5629 80.5569 60.9442 81.2698 61.504 81.8293L65.6666 85.9893V74.9999ZM76.3333 72.3333V70.9999C76.3333 69.9391 75.9119 68.9216 75.1617 68.1715C74.4116 67.4213 73.3942 66.9999 72.3333 66.9999C71.2724 66.9999 70.255 67.4213 69.5049 68.1715C68.7547 68.9216 68.3333 69.9391 68.3333 70.9999V72.3333H76.3333Z" fill="white"/>
<path d="M121.667 89V88.8217C121.667 87.4967 120.84 86.3417 119.805 85.515C118.454 84.4377 117.471 82.967 116.993 81.3067C116.515 79.6463 116.564 77.8783 117.135 76.2474C117.706 74.6165 118.769 73.2033 120.179 72.2034C121.588 71.2036 123.273 70.6665 125.001 70.6665C126.729 70.6665 128.414 71.2036 129.823 72.2034C131.232 73.2033 132.296 74.6165 132.867 76.2474C133.437 77.8783 133.487 79.6463 133.008 81.3067C132.53 82.967 131.548 84.4377 130.197 85.515C129.16 86.3433 128.333 87.4967 128.333 88.8217V89M121.667 89V92.3333C121.667 92.7754 121.842 93.1993 122.155 93.5118C122.467 93.8244 122.891 94 123.333 94H126.667C127.109 94 127.533 93.8244 127.845 93.5118C128.158 93.1993 128.333 92.7754 128.333 92.3333V89M121.667 89H128.333M138.333 79H140M111.667 79H110M125 65.6667V64M134.428 69.5717L135.607 68.3933M115.573 69.5717L114.393 68.3933M125 84V80.6667" stroke="white" stroke-width="4.16667" stroke-linecap="round" stroke-linejoin="round"/>
</svg>
